<svg xmlns="http://www.w3.org/2000/svg" xmlns:xlink="http://www.w3.org/1999/xlink" width="500" zoomAndPan="magnify" viewBox="0 0 375 374.999991" height="500" preserveAspectRatio="xMidYMid meet" version="1.0"><defs><g/><clipPath id="eb31b35c94"><rect x="0" width="375" y="0" height="251"/></clipPath><clipPath id="fc1194c6d1"><path d="M 73.625 39.722656 L 202.207031 39.722656 L 202.207031 104.015625 L 73.625 104.015625 Z M 73.625 39.722656 " clip-rule="nonzero"/></clipPath><clipPath id="ebcfd7d408"><path d="M 170.0625 39.722656 L 105.769531 39.722656 L 73.625 71.871094 L 105.769531 104.015625 L 170.0625 104.015625 L 202.207031 71.871094 Z M 170.0625 39.722656 " clip-rule="nonzero"/></clipPath><clipPath id="e844e4625e"><path d="M 0.625 0.722656 L 129.207031 0.722656 L 129.207031 65.015625 L 0.625 65.015625 Z M 0.625 0.722656 " clip-rule="nonzero"/></clipPath><clipPath id="44c4375d37"><path d="M 97.0625 0.722656 L 32.769531 0.722656 L 0.625 32.871094 L 32.769531 65.015625 L 97.0625 65.015625 L 129.207031 32.871094 Z M 97.0625 0.722656 " clip-rule="nonzero"/></clipPath><clipPath id="69e82c34f7"><rect x="0" width="130" y="0" height="66"/></clipPath><clipPath id="6505116ec6"><path d="M 172.792969 74.285156 L 301.375 74.285156 L 301.375 138.578125 L 172.792969 138.578125 Z M 172.792969 74.285156 " clip-rule="nonzero"/></clipPath><clipPath id="cf22c4c8c6"><path d="M 269.230469 74.285156 L 204.9375 74.285156 L 172.792969 106.429688 L 204.9375 138.578125 L 269.230469 138.578125 L 301.375 106.429688 Z M 269.230469 74.285156 " clip-rule="nonzero"/></clipPath><clipPath id="67c0145d0a"><path d="M 0.792969 0.285156 L 129.375 0.285156 L 129.375 64.578125 L 0.792969 64.578125 Z M 0.792969 0.285156 " clip-rule="nonzero"/></clipPath><clipPath id="ebee41fcc3"><path d="M 97.230469 0.285156 L 32.9375 0.285156 L 0.792969 32.429688 L 32.9375 64.578125 L 97.230469 64.578125 L 129.375 32.429688 Z M 97.230469 0.285156 " clip-rule="nonzero"/></clipPath><clipPath id="8d978814dc"><rect x="0" width="130" y="0" height="65"/></clipPath><clipPath id="af6bc3f747"><path d="M 172.792969 5.160156 L 301.375 5.160156 L 301.375 69.453125 L 172.792969 69.453125 Z M 172.792969 5.160156 " clip-rule="nonzero"/></clipPath><clipPath id="972876d68b"><path d="M 269.230469 5.160156 L 204.9375 5.160156 L 172.792969 37.308594 L 204.9375 69.453125 L 269.230469 69.453125 L 301.375 37.308594 Z M 269.230469 5.160156 " clip-rule="nonzero"/></clipPath><clipPath id="89dce93d21"><path d="M 0.792969 0.160156 L 129.375 0.160156 L 129.375 64.453125 L 0.792969 64.453125 Z M 0.792969 0.160156 " clip-rule="nonzero"/></clipPath><clipPath id="43a67e1b5a"><path d="M 97.230469 0.160156 L 32.9375 0.160156 L 0.792969 32.308594 L 32.9375 64.453125 L 97.230469 64.453125 L 129.375 32.308594 Z M 97.230469 0.160156 " clip-rule="nonzero"/></clipPath><clipPath id="6727b40530"><rect x="0" width="130" y="0" height="65"/></clipPath></defs><g transform="matrix(1, 0, 0, 1, 0, 124)"><g clip-path="url(#eb31b35c94)"><g fill="#50a248" fill-opacity="1"><g transform="translate(2.012413, 130.661932)"><g><path d="M 33.734375 -69.6875 C 38.578125 -69.6875 42.820312 -68.703125 46.46875 -66.734375 C 50.125 -64.765625 52.9375 -62.179688 54.90625 -58.984375 L 54.90625 -68.703125 L 75.96875 -68.703125 L 75.96875 -0.125 C 75.96875 6.195312 74.710938 11.921875 72.203125 17.046875 C 69.703125 22.179688 65.882812 26.265625 60.75 29.296875 C 55.625 32.335938 49.242188 33.859375 41.609375 33.859375 C 31.429688 33.859375 23.179688 31.457031 16.859375 26.65625 C 10.546875 21.851562 6.9375 15.347656 6.03125 7.140625 L 26.84375 7.140625 C 27.5 9.765625 29.054688 11.835938 31.515625 13.359375 C 33.984375 14.878906 37.019531 15.640625 40.625 15.640625 C 44.976562 15.640625 48.445312 14.382812 51.03125 11.875 C 53.613281 9.375 54.90625 5.375 54.90625 -0.125 L 54.90625 -9.84375 C 52.851562 -6.644531 50.019531 -4.039062 46.40625 -2.03125 C 42.800781 -0.0195312 38.578125 0.984375 33.734375 0.984375 C 28.066406 0.984375 22.9375 -0.46875 18.34375 -3.375 C 13.75 -6.289062 10.117188 -10.4375 7.453125 -15.8125 C 4.785156 -21.195312 3.453125 -27.414062 3.453125 -34.46875 C 3.453125 -41.53125 4.785156 -47.726562 7.453125 -53.0625 C 10.117188 -58.394531 13.75 -62.5 18.34375 -65.375 C 22.9375 -68.25 28.066406 -69.6875 33.734375 -69.6875 Z M 54.90625 -34.359375 C 54.90625 -39.609375 53.445312 -43.75 50.53125 -46.78125 C 47.625 -49.820312 44.078125 -51.34375 39.890625 -51.34375 C 35.703125 -51.34375 32.148438 -49.84375 29.234375 -46.84375 C 26.328125 -43.851562 24.875 -39.726562 24.875 -34.46875 C 24.875 -29.21875 26.328125 -25.050781 29.234375 -21.96875 C 32.148438 -18.894531 35.703125 -17.359375 39.890625 -17.359375 C 44.078125 -17.359375 47.625 -18.875 50.53125 -21.90625 C 53.445312 -24.945312 54.90625 -29.097656 54.90625 -34.359375 Z M 54.90625 -34.359375 "/></g></g></g><g fill="#50a248" fill-opacity="1"><g transform="translate(85.610087, 130.661932)"><g><path d="M 28.6875 -57.25 C 31.144531 -61.03125 34.222656 -64.003906 37.921875 -66.171875 C 41.617188 -68.347656 45.722656 -69.4375 50.234375 -69.4375 L 50.234375 -47.15625 L 44.453125 -47.15625 C 39.191406 -47.15625 35.25 -46.023438 32.625 -43.765625 C 30 -41.515625 28.6875 -37.554688 28.6875 -31.890625 L 28.6875 0 L 7.640625 0 L 7.640625 -68.703125 L 28.6875 -68.703125 Z M 28.6875 -57.25 "/></g></g></g><g fill="#50a248" fill-opacity="1"><g transform="translate(138.304933, 130.661932)"><g><path d="M 72.390625 -35.453125 C 72.390625 -33.484375 72.269531 -31.429688 72.03125 -29.296875 L 24.375 -29.296875 C 24.707031 -25.035156 26.082031 -21.773438 28.5 -19.515625 C 30.925781 -17.253906 33.90625 -16.125 37.4375 -16.125 C 42.6875 -16.125 46.335938 -18.34375 48.390625 -22.78125 L 70.796875 -22.78125 C 69.648438 -18.257812 67.578125 -14.191406 64.578125 -10.578125 C 61.578125 -6.972656 57.820312 -4.144531 53.3125 -2.09375 C 48.800781 -0.0390625 43.753906 0.984375 38.171875 0.984375 C 31.441406 0.984375 25.445312 -0.453125 20.1875 -3.328125 C 14.9375 -6.203125 10.832031 -10.304688 7.875 -15.640625 C 4.925781 -20.972656 3.453125 -27.210938 3.453125 -34.359375 C 3.453125 -41.492188 4.90625 -47.726562 7.8125 -53.0625 C 10.726562 -58.394531 14.8125 -62.5 20.0625 -65.375 C 25.320312 -68.25 31.359375 -69.6875 38.171875 -69.6875 C 44.816406 -69.6875 50.722656 -68.289062 55.890625 -65.5 C 61.066406 -62.707031 65.109375 -58.722656 68.015625 -53.546875 C 70.929688 -48.378906 72.390625 -42.347656 72.390625 -35.453125 Z M 50.84375 -41 C 50.84375 -44.613281 49.613281 -47.488281 47.15625 -49.625 C 44.695312 -51.757812 41.617188 -52.828125 37.921875 -52.828125 C 34.390625 -52.828125 31.410156 -51.800781 28.984375 -49.75 C 26.566406 -47.695312 25.070312 -44.78125 24.5 -41 Z M 50.84375 -41 "/></g></g></g><g fill="#50a248" fill-opacity="1"><g transform="translate(214.146121, 130.661932)"><g><path d="M 72.390625 -35.453125 C 72.390625 -33.484375 72.269531 -31.429688 72.03125 -29.296875 L 24.375 -29.296875 C 24.707031 -25.035156 26.082031 -21.773438 28.5 -19.515625 C 30.925781 -17.253906 33.90625 -16.125 37.4375 -16.125 C 42.6875 -16.125 46.335938 -18.34375 48.390625 -22.78125 L 70.796875 -22.78125 C 69.648438 -18.257812 67.578125 -14.191406 64.578125 -10.578125 C 61.578125 -6.972656 57.820312 -4.144531 53.3125 -2.09375 C 48.800781 -0.0390625 43.753906 0.984375 38.171875 0.984375 C 31.441406 0.984375 25.445312 -0.453125 20.1875 -3.328125 C 14.9375 -6.203125 10.832031 -10.304688 7.875 -15.640625 C 4.925781 -20.972656 3.453125 -27.210938 3.453125 -34.359375 C 3.453125 -41.492188 4.90625 -47.726562 7.8125 -53.0625 C 10.726562 -58.394531 14.8125 -62.5 20.0625 -65.375 C 25.320312 -68.25 31.359375 -69.6875 38.171875 -69.6875 C 44.816406 -69.6875 50.722656 -68.289062 55.890625 -65.5 C 61.066406 -62.707031 65.109375 -58.722656 68.015625 -53.546875 C 70.929688 -48.378906 72.390625 -42.347656 72.390625 -35.453125 Z M 50.84375 -41 C 50.84375 -44.613281 49.613281 -47.488281 47.15625 -49.625 C 44.695312 -51.757812 41.617188 -52.828125 37.921875 -52.828125 C 34.390625 -52.828125 31.410156 -51.800781 28.984375 -49.75 C 26.566406 -47.695312 25.070312 -44.78125 24.5 -41 Z M 50.84375 -41 "/></g></g></g><g fill="#50a248" fill-opacity="1"><g transform="translate(289.987309, 130.661932)"><g><path d="M 49.5 -69.4375 C 57.539062 -69.4375 63.960938 -66.832031 68.765625 -61.625 C 73.566406 -56.414062 75.96875 -49.253906 75.96875 -40.140625 L 75.96875 0 L 55.03125 0 L 55.03125 -37.3125 C 55.03125 -41.90625 53.835938 -45.472656 51.453125 -48.015625 C 49.078125 -50.554688 45.878906 -51.828125 41.859375 -51.828125 C 37.835938 -51.828125 34.632812 -50.554688 32.25 -48.015625 C 29.875 -45.472656 28.6875 -41.90625 28.6875 -37.3125 L 28.6875 0 L 7.640625 0 L 7.640625 -68.703125 L 28.6875 -68.703125 L 28.6875 -59.59375 C 30.820312 -62.625 33.691406 -65.019531 37.296875 -66.78125 C 40.910156 -68.550781 44.976562 -69.4375 49.5 -69.4375 Z M 49.5 -69.4375 "/></g></g></g><g fill="#50a248" fill-opacity="1"><g transform="translate(0.0144823, 222.392995)"><g><path d="M 3.921875 -25.046875 C 3.921875 -30.203125 4.953125 -34.707031 7.015625 -38.5625 C 9.078125 -42.414062 11.941406 -45.40625 15.609375 -47.53125 C 19.285156 -49.65625 23.492188 -50.71875 28.234375 -50.71875 C 34.359375 -50.71875 39.410156 -49.226562 43.390625 -46.25 C 47.367188 -43.28125 49.992188 -39.15625 51.265625 -33.875 L 42.34375 -33.875 C 41.488281 -36.90625 39.832031 -39.300781 37.375 -41.0625 C 34.914062 -42.820312 31.867188 -43.703125 28.234375 -43.703125 C 23.492188 -43.703125 19.664062 -42.078125 16.75 -38.828125 C 13.84375 -35.585938 12.390625 -30.992188 12.390625 -25.046875 C 12.390625 -19.035156 13.84375 -14.390625 16.75 -11.109375 C 19.664062 -7.828125 23.492188 -6.1875 28.234375 -6.1875 C 31.867188 -6.1875 34.898438 -7.035156 37.328125 -8.734375 C 39.765625 -10.441406 41.4375 -12.875 42.34375 -16.03125 L 51.265625 -16.03125 C 49.929688 -10.925781 47.257812 -6.84375 43.25 -3.78125 C 39.25 -0.71875 34.242188 0.8125 28.234375 0.8125 C 23.492188 0.8125 19.285156 -0.25 15.609375 -2.375 C 11.941406 -4.5 9.078125 -7.5 7.015625 -11.375 C 4.953125 -15.257812 3.921875 -19.816406 3.921875 -25.046875 Z M 3.921875 -25.046875 "/></g></g></g><g fill="#50a248" fill-opacity="1"><g transform="translate(55.282213, 222.392995)"><g><path d="M 28.78125 0.8125 C 24.101562 0.8125 19.863281 -0.25 16.0625 -2.375 C 12.269531 -4.5 9.296875 -7.515625 7.140625 -11.421875 C 4.992188 -15.335938 3.921875 -19.878906 3.921875 -25.046875 C 3.921875 -30.140625 5.023438 -34.644531 7.234375 -38.5625 C 9.453125 -42.476562 12.472656 -45.484375 16.296875 -47.578125 C 20.117188 -49.671875 24.398438 -50.71875 29.140625 -50.71875 C 33.878906 -50.71875 38.160156 -49.671875 41.984375 -47.578125 C 45.804688 -45.484375 48.820312 -42.492188 51.03125 -38.609375 C 53.25 -34.722656 54.359375 -30.203125 54.359375 -25.046875 C 54.359375 -19.878906 53.21875 -15.335938 50.9375 -11.421875 C 48.664062 -7.515625 45.585938 -4.5 41.703125 -2.375 C 37.816406 -0.25 33.507812 0.8125 28.78125 0.8125 Z M 28.78125 -6.46875 C 31.75 -6.46875 34.535156 -7.164062 37.140625 -8.5625 C 39.753906 -9.957031 41.863281 -12.050781 43.46875 -14.84375 C 45.082031 -17.632812 45.890625 -21.035156 45.890625 -25.046875 C 45.890625 -29.046875 45.097656 -32.441406 43.515625 -35.234375 C 41.941406 -38.035156 39.878906 -40.117188 37.328125 -41.484375 C 34.785156 -42.847656 32.023438 -43.53125 29.046875 -43.53125 C 26.015625 -43.53125 23.238281 -42.847656 20.71875 -41.484375 C 18.195312 -40.117188 16.175781 -38.035156 14.65625 -35.234375 C 13.144531 -32.441406 12.390625 -29.046875 12.390625 -25.046875 C 12.390625 -20.972656 13.128906 -17.539062 14.609375 -14.75 C 16.097656 -11.957031 18.085938 -9.878906 20.578125 -8.515625 C 23.066406 -7.148438 25.800781 -6.46875 28.78125 -6.46875 Z M 28.78125 -6.46875 "/></g></g></g><g fill="#50a248" fill-opacity="1"><g transform="translate(113.554616, 222.392995)"><g><path d="M 31.328125 -50.8125 C 37.398438 -50.8125 42.316406 -48.972656 46.078125 -45.296875 C 49.835938 -41.628906 51.71875 -36.332031 51.71875 -29.40625 L 51.71875 0 L 43.53125 0 L 43.53125 -28.234375 C 43.53125 -33.210938 42.285156 -37.019531 39.796875 -39.65625 C 37.304688 -42.300781 33.90625 -43.625 29.59375 -43.625 C 25.21875 -43.625 21.738281 -42.253906 19.15625 -39.515625 C 16.582031 -36.785156 15.296875 -32.8125 15.296875 -27.59375 L 15.296875 0 L 7.015625 0 L 7.015625 -49.90625 L 15.296875 -49.90625 L 15.296875 -42.796875 C 16.929688 -45.347656 19.160156 -47.320312 21.984375 -48.71875 C 24.804688 -50.113281 27.921875 -50.8125 31.328125 -50.8125 Z M 31.328125 -50.8125 "/></g></g></g><g fill="#50a248" fill-opacity="1"><g transform="translate(171.827019, 222.392995)"><g><path d="M 31.328125 -50.8125 C 37.398438 -50.8125 42.316406 -48.972656 46.078125 -45.296875 C 49.835938 -41.628906 51.71875 -36.332031 51.71875 -29.40625 L 51.71875 0 L 43.53125 0 L 43.53125 -28.234375 C 43.53125 -33.210938 42.285156 -37.019531 39.796875 -39.65625 C 37.304688 -42.300781 33.90625 -43.625 29.59375 -43.625 C 25.21875 -43.625 21.738281 -42.253906 19.15625 -39.515625 C 16.582031 -36.785156 15.296875 -32.8125 15.296875 -27.59375 L 15.296875 0 L 7.015625 0 L 7.015625 -49.90625 L 15.296875 -49.90625 L 15.296875 -42.796875 C 16.929688 -45.347656 19.160156 -47.320312 21.984375 -48.71875 C 24.804688 -50.113281 27.921875 -50.8125 31.328125 -50.8125 Z M 31.328125 -50.8125 "/></g></g></g><g fill="#50a248" fill-opacity="1"><g transform="translate(230.099422, 222.392995)"><g><path d="M 52.546875 -26.859375 C 52.546875 -25.285156 52.453125 -23.617188 52.265625 -21.859375 L 12.390625 -21.859375 C 12.691406 -16.941406 14.375 -13.097656 17.4375 -10.328125 C 20.5 -7.566406 24.21875 -6.1875 28.59375 -6.1875 C 32.175781 -6.1875 35.164062 -7.019531 37.5625 -8.6875 C 39.957031 -10.363281 41.644531 -12.597656 42.625 -15.390625 L 51.546875 -15.390625 C 50.203125 -10.597656 47.523438 -6.695312 43.515625 -3.6875 C 39.515625 -0.6875 34.539062 0.8125 28.59375 0.8125 C 23.851562 0.8125 19.617188 -0.25 15.890625 -2.375 C 12.160156 -4.5 9.234375 -7.515625 7.109375 -11.421875 C 4.984375 -15.335938 3.921875 -19.878906 3.921875 -25.046875 C 3.921875 -30.203125 4.953125 -34.722656 7.015625 -38.609375 C 9.078125 -42.492188 11.972656 -45.484375 15.703125 -47.578125 C 19.441406 -49.671875 23.738281 -50.71875 28.59375 -50.71875 C 33.332031 -50.71875 37.519531 -49.6875 41.15625 -47.625 C 44.800781 -45.5625 47.609375 -42.722656 49.578125 -39.109375 C 51.554688 -35.492188 52.546875 -31.410156 52.546875 -26.859375 Z M 43.984375 -28.59375 C 43.984375 -31.75 43.285156 -34.460938 41.890625 -36.734375 C 40.492188 -39.015625 38.59375 -40.742188 36.1875 -41.921875 C 33.789062 -43.109375 31.140625 -43.703125 28.234375 -43.703125 C 24.046875 -43.703125 20.476562 -42.367188 17.53125 -39.703125 C 14.582031 -37.035156 12.894531 -33.332031 12.46875 -28.59375 Z M 43.984375 -28.59375 "/></g></g></g><g fill="#50a248" fill-opacity="1"><g transform="translate(286.550822, 222.392995)"><g><path d="M 3.921875 -25.046875 C 3.921875 -30.203125 4.953125 -34.707031 7.015625 -38.5625 C 9.078125 -42.414062 11.941406 -45.40625 15.609375 -47.53125 C 19.285156 -49.65625 23.492188 -50.71875 28.234375 -50.71875 C 34.359375 -50.71875 39.410156 -49.226562 43.390625 -46.25 C 47.367188 -43.28125 49.992188 -39.15625 51.265625 -33.875 L 42.34375 -33.875 C 41.488281 -36.90625 39.832031 -39.300781 37.375 -41.0625 C 34.914062 -42.820312 31.867188 -43.703125 28.234375 -43.703125 C 23.492188 -43.703125 19.664062 -42.078125 16.75 -38.828125 C 13.84375 -35.585938 12.390625 -30.992188 12.390625 -25.046875 C 12.390625 -19.035156 13.84375 -14.390625 16.75 -11.109375 C 19.664062 -7.828125 23.492188 -6.1875 28.234375 -6.1875 C 31.867188 -6.1875 34.898438 -7.035156 37.328125 -8.734375 C 39.765625 -10.441406 41.4375 -12.875 42.34375 -16.03125 L 51.265625 -16.03125 C 49.929688 -10.925781 47.257812 -6.84375 43.25 -3.78125 C 39.25 -0.71875 34.242188 0.8125 28.234375 0.8125 C 23.492188 0.8125 19.285156 -0.25 15.609375 -2.375 C 11.941406 -4.5 9.078125 -7.5 7.015625 -11.375 C 4.953125 -15.257812 3.921875 -19.816406 3.921875 -25.046875 Z M 3.921875 -25.046875 "/></g></g></g><g fill="#50a248" fill-opacity="1"><g transform="translate(341.818525, 222.392995)"><g><path d="M 17.125 -43.078125 L 17.125 -13.65625 C 17.125 -11.226562 17.640625 -9.515625 18.671875 -8.515625 C 19.703125 -7.515625 21.492188 -7.015625 24.046875 -7.015625 L 30.140625 -7.015625 L 30.140625 0 L 22.671875 0 C 18.054688 0 14.59375 -1.0625 12.28125 -3.1875 C 9.976562 -5.3125 8.828125 -8.800781 8.828125 -13.65625 L 8.828125 -43.078125 L 2.375 -43.078125 L 2.375 -49.90625 L 8.828125 -49.90625 L 8.828125 -62.46875 L 17.125 -62.46875 L 17.125 -49.90625 L 30.140625 -49.90625 L 30.140625 -43.078125 Z M 17.125 -43.078125 "/></g></g></g></g></g><g clip-path="url(#fc1194c6d1)"><g clip-path="url(#ebcfd7d408)"><g transform="matrix(1, 0, 0, 1, 73, 39)"><g clip-path="url(#69e82c34f7)"><g clip-path="url(#e844e4625e)"><g clip-path="url(#44c4375d37)"><path fill="#50a248" d="M 0.625 0.722656 L 129.207031 0.722656 L 129.207031 65.015625 L 0.625 65.015625 Z M 0.625 0.722656 " fill-opacity="1" fill-rule="nonzero"/></g></g></g></g></g></g><g clip-path="url(#6505116ec6)"><g clip-path="url(#cf22c4c8c6)"><g transform="matrix(1, 0, 0, 1, 172, 74)"><g clip-path="url(#8d978814dc)"><g clip-path="url(#67c0145d0a)"><g clip-path="url(#ebee41fcc3)"><path fill="#75485e" d="M 0.792969 0.285156 L 129.375 0.285156 L 129.375 64.578125 L 0.792969 64.578125 Z M 0.792969 0.285156 " fill-opacity="1" fill-rule="nonzero"/></g></g></g></g></g></g><g clip-path="url(#af6bc3f747)"><g clip-path="url(#972876d68b)"><g transform="matrix(1, 0, 0, 1, 172, 5)"><g clip-path="url(#6727b40530)"><g clip-path="url(#89dce93d21)"><g clip-path="url(#43a67e1b5a)"><path fill="#50a248" d="M 0.792969 0.160156 L 129.375 0.160156 L 129.375 64.453125 L 0.792969 64.453125 Z M 0.792969 0.160156 " fill-opacity="1" fill-rule="nonzero"/></g></g></g></g></g></g></svg>