<svg xmlns="http://www.w3.org/2000/svg" xmlns:xlink="http://www.w3.org/1999/xlink" width="500" zoomAndPan="magnify" viewBox="0 0 375 374.999991" height="500" preserveAspectRatio="xMidYMid meet" version="1.0"><defs><g/><clipPath id="5922378d8c"><path d="M 187.5 0 C 83.945312 0 0 83.945312 0 187.5 C 0 291.054688 83.945312 375 187.5 375 C 291.054688 375 375 291.054688 375 187.5 C 375 83.945312 291.054688 0 187.5 0 Z M 187.5 0 " clip-rule="nonzero"/></clipPath><clipPath id="6cf20d2cdd"><path d="M 0 0 L 375 0 L 375 375 L 0 375 Z M 0 0 " clip-rule="nonzero"/></clipPath><clipPath id="013bb02522"><path d="M 187.5 0 C 83.945312 0 0 83.945312 0 187.5 C 0 291.054688 83.945312 375 187.5 375 C 291.054688 375 375 291.054688 375 187.5 C 375 83.945312 291.054688 0 187.5 0 Z M 187.5 0 " clip-rule="nonzero"/></clipPath><clipPath id="0071021400"><rect x="0" width="375" y="0" height="375"/></clipPath><clipPath id="c0c946567f"><rect x="0" width="291" y="0" height="198"/></clipPath><clipPath id="4e4704eb40"><path d="M 99.515625 56.246094 L 198.863281 56.246094 L 198.863281 105.921875 L 99.515625 105.921875 Z M 99.515625 56.246094 " clip-rule="nonzero"/></clipPath><clipPath id="70ea58d059"><path d="M 174.027344 56.246094 L 124.351562 56.246094 L 99.515625 81.085938 L 124.351562 105.921875 L 174.027344 105.921875 L 198.863281 81.085938 Z M 174.027344 56.246094 " clip-rule="nonzero"/></clipPath><clipPath id="fd55d65a97"><path d="M 0.515625 0.246094 L 99.863281 0.246094 L 99.863281 49.921875 L 0.515625 49.921875 Z M 0.515625 0.246094 " clip-rule="nonzero"/></clipPath><clipPath id="c6dad704ed"><path d="M 75.027344 0.246094 L 25.351562 0.246094 L 0.515625 25.085938 L 25.351562 49.921875 L 75.027344 49.921875 L 99.863281 25.085938 Z M 75.027344 0.246094 " clip-rule="nonzero"/></clipPath><clipPath id="640f6fa1f1"><rect x="0" width="100" y="0" height="50"/></clipPath><clipPath id="ce6866034b"><path d="M 176.136719 82.953125 L 275.484375 82.953125 L 275.484375 132.625 L 176.136719 132.625 Z M 176.136719 82.953125 " clip-rule="nonzero"/></clipPath><clipPath id="45100d99d7"><path d="M 250.648438 82.953125 L 200.972656 82.953125 L 176.136719 107.789062 L 200.972656 132.625 L 250.648438 132.625 L 275.484375 107.789062 Z M 250.648438 82.953125 " clip-rule="nonzero"/></clipPath><clipPath id="3f9f2ec572"><path d="M 0.136719 0.953125 L 99.484375 0.953125 L 99.484375 50.625 L 0.136719 50.625 Z M 0.136719 0.953125 " clip-rule="nonzero"/></clipPath><clipPath id="96fe598c7b"><path d="M 74.648438 0.953125 L 24.972656 0.953125 L 0.136719 25.789062 L 24.972656 50.625 L 74.648438 50.625 L 99.484375 25.789062 Z M 74.648438 0.953125 " clip-rule="nonzero"/></clipPath><clipPath id="1ef669b286"><rect x="0" width="100" y="0" height="51"/></clipPath><clipPath id="f39177b98a"><path d="M 176.136719 29.542969 L 275.484375 29.542969 L 275.484375 79.21875 L 176.136719 79.21875 Z M 176.136719 29.542969 " clip-rule="nonzero"/></clipPath><clipPath id="0b278b5846"><path d="M 250.648438 29.542969 L 200.972656 29.542969 L 176.136719 54.382812 L 200.972656 79.21875 L 250.648438 79.21875 L 275.484375 54.382812 Z M 250.648438 29.542969 " clip-rule="nonzero"/></clipPath><clipPath id="9928fb40dd"><path d="M 0.136719 0.542969 L 99.484375 0.542969 L 99.484375 50.21875 L 0.136719 50.21875 Z M 0.136719 0.542969 " clip-rule="nonzero"/></clipPath><clipPath id="a66487b0bd"><path d="M 74.648438 0.542969 L 24.972656 0.542969 L 0.136719 25.382812 L 24.972656 50.21875 L 74.648438 50.21875 L 99.484375 25.382812 Z M 74.648438 0.542969 " clip-rule="nonzero"/></clipPath><clipPath id="3a967cc05d"><rect x="0" width="100" y="0" height="51"/></clipPath></defs><g clip-path="url(#5922378d8c)"><g transform="matrix(1, 0, 0, 1, 0, 0)"><g clip-path="url(#0071021400)"><g clip-path="url(#6cf20d2cdd)"><g clip-path="url(#013bb02522)"><rect x="-82.5" width="540" fill="#d3fff3" height="539.999987" y="-82.499998" fill-opacity="1"/></g></g></g></g></g><g transform="matrix(1, 0, 0, 1, 42, 121)"><g clip-path="url(#c0c946567f)"><g fill="#50a248" fill-opacity="1"><g transform="translate(2.187658, 101.314406)"><g><path d="M 26.0625 -53.84375 C 29.8125 -53.84375 33.097656 -53.082031 35.921875 -51.5625 C 38.742188 -50.039062 40.914062 -48.046875 42.4375 -45.578125 L 42.4375 -53.09375 L 58.703125 -53.09375 L 58.703125 -0.09375 C 58.703125 4.789062 57.734375 9.210938 55.796875 13.171875 C 53.859375 17.140625 50.90625 20.296875 46.9375 22.640625 C 42.976562 24.984375 38.050781 26.15625 32.15625 26.15625 C 24.289062 26.15625 17.914062 24.300781 13.03125 20.59375 C 8.144531 16.882812 5.351562 11.859375 4.65625 5.515625 L 20.734375 5.515625 C 21.242188 7.546875 22.445312 9.144531 24.34375 10.3125 C 26.25 11.488281 28.597656 12.078125 31.390625 12.078125 C 34.753906 12.078125 37.4375 11.109375 39.4375 9.171875 C 41.4375 7.242188 42.4375 4.15625 42.4375 -0.09375 L 42.4375 -7.609375 C 40.84375 -5.140625 38.648438 -3.125 35.859375 -1.5625 C 33.078125 -0.0078125 29.8125 0.765625 26.0625 0.765625 C 21.6875 0.765625 17.722656 -0.359375 14.171875 -2.609375 C 10.617188 -4.867188 7.8125 -8.070312 5.75 -12.21875 C 3.6875 -16.375 2.65625 -21.179688 2.65625 -26.640625 C 2.65625 -32.097656 3.6875 -36.882812 5.75 -41 C 7.8125 -45.125 10.617188 -48.296875 14.171875 -50.515625 C 17.722656 -52.734375 21.6875 -53.84375 26.0625 -53.84375 Z M 42.4375 -26.546875 C 42.4375 -30.609375 41.304688 -33.8125 39.046875 -36.15625 C 36.796875 -38.5 34.054688 -39.671875 30.828125 -39.671875 C 27.585938 -39.671875 24.84375 -38.515625 22.59375 -36.203125 C 20.34375 -33.890625 19.21875 -30.703125 19.21875 -26.640625 C 19.21875 -22.578125 20.34375 -19.359375 22.59375 -16.984375 C 24.84375 -14.609375 27.585938 -13.421875 30.828125 -13.421875 C 34.054688 -13.421875 36.796875 -14.59375 39.046875 -16.9375 C 41.304688 -19.28125 42.4375 -22.484375 42.4375 -26.546875 Z M 42.4375 -26.546875 "/></g></g></g><g fill="#50a248" fill-opacity="1"><g transform="translate(66.777308, 101.314406)"><g><path d="M 22.171875 -44.234375 C 24.066406 -47.148438 26.441406 -49.445312 29.296875 -51.125 C 32.148438 -52.8125 35.320312 -53.65625 38.8125 -53.65625 L 38.8125 -36.4375 L 34.34375 -36.4375 C 30.28125 -36.4375 27.234375 -35.5625 25.203125 -33.8125 C 23.179688 -32.070312 22.171875 -29.015625 22.171875 -24.640625 L 22.171875 0 L 5.90625 0 L 5.90625 -53.09375 L 22.171875 -53.09375 Z M 22.171875 -44.234375 "/></g></g></g><g fill="#50a248" fill-opacity="1"><g transform="translate(107.490662, 101.314406)"><g><path d="M 55.9375 -27.40625 C 55.9375 -25.875 55.84375 -24.285156 55.65625 -22.640625 L 18.84375 -22.640625 C 19.09375 -19.347656 20.148438 -16.828125 22.015625 -15.078125 C 23.890625 -13.335938 26.191406 -12.46875 28.921875 -12.46875 C 32.984375 -12.46875 35.804688 -14.175781 37.390625 -17.59375 L 54.703125 -17.59375 C 53.816406 -14.113281 52.210938 -10.976562 49.890625 -8.1875 C 47.578125 -5.394531 44.675781 -3.203125 41.1875 -1.609375 C 37.707031 -0.0234375 33.8125 0.765625 29.5 0.765625 C 24.289062 0.765625 19.65625 -0.34375 15.59375 -2.5625 C 11.539062 -4.789062 8.367188 -7.960938 6.078125 -12.078125 C 3.796875 -16.203125 2.65625 -21.023438 2.65625 -26.546875 C 2.65625 -32.066406 3.78125 -36.882812 6.03125 -41 C 8.289062 -45.125 11.445312 -48.296875 15.5 -50.515625 C 19.5625 -52.734375 24.226562 -53.84375 29.5 -53.84375 C 34.632812 -53.84375 39.195312 -52.765625 43.1875 -50.609375 C 47.1875 -48.453125 50.3125 -45.375 52.5625 -41.375 C 54.8125 -37.382812 55.9375 -32.726562 55.9375 -27.40625 Z M 39.296875 -31.6875 C 39.296875 -34.476562 38.34375 -36.695312 36.4375 -38.34375 C 34.53125 -39.988281 32.148438 -40.8125 29.296875 -40.8125 C 26.578125 -40.8125 24.28125 -40.019531 22.40625 -38.4375 C 20.53125 -36.851562 19.375 -34.601562 18.9375 -31.6875 Z M 39.296875 -31.6875 "/></g></g></g><g fill="#50a248" fill-opacity="1"><g transform="translate(166.087458, 101.314406)"><g><path d="M 55.9375 -27.40625 C 55.9375 -25.875 55.84375 -24.285156 55.65625 -22.640625 L 18.84375 -22.640625 C 19.09375 -19.347656 20.148438 -16.828125 22.015625 -15.078125 C 23.890625 -13.335938 26.191406 -12.46875 28.921875 -12.46875 C 32.984375 -12.46875 35.804688 -14.175781 37.390625 -17.59375 L 54.703125 -17.59375 C 53.816406 -14.113281 52.210938 -10.976562 49.890625 -8.1875 C 47.578125 -5.394531 44.675781 -3.203125 41.1875 -1.609375 C 37.707031 -0.0234375 33.8125 0.765625 29.5 0.765625 C 24.289062 0.765625 19.65625 -0.34375 15.59375 -2.5625 C 11.539062 -4.789062 8.367188 -7.960938 6.078125 -12.078125 C 3.796875 -16.203125 2.65625 -21.023438 2.65625 -26.546875 C 2.65625 -32.066406 3.78125 -36.882812 6.03125 -41 C 8.289062 -45.125 11.445312 -48.296875 15.5 -50.515625 C 19.5625 -52.734375 24.226562 -53.84375 29.5 -53.84375 C 34.632812 -53.84375 39.195312 -52.765625 43.1875 -50.609375 C 47.1875 -48.453125 50.3125 -45.375 52.5625 -41.375 C 54.8125 -37.382812 55.9375 -32.726562 55.9375 -27.40625 Z M 39.296875 -31.6875 C 39.296875 -34.476562 38.34375 -36.695312 36.4375 -38.34375 C 34.53125 -39.988281 32.148438 -40.8125 29.296875 -40.8125 C 26.578125 -40.8125 24.28125 -40.019531 22.40625 -38.4375 C 20.53125 -36.851562 19.375 -34.601562 18.9375 -31.6875 Z M 39.296875 -31.6875 "/></g></g></g><g fill="#50a248" fill-opacity="1"><g transform="translate(224.684253, 101.314406)"><g><path d="M 38.25 -53.65625 C 44.46875 -53.65625 49.429688 -51.640625 53.140625 -47.609375 C 56.847656 -43.585938 58.703125 -38.054688 58.703125 -31.015625 L 58.703125 0 L 42.53125 0 L 42.53125 -28.828125 C 42.53125 -32.378906 41.609375 -35.132812 39.765625 -37.09375 C 37.929688 -39.0625 35.457031 -40.046875 32.34375 -40.046875 C 29.238281 -40.046875 26.765625 -39.0625 24.921875 -37.09375 C 23.085938 -35.132812 22.171875 -32.378906 22.171875 -28.828125 L 22.171875 0 L 5.90625 0 L 5.90625 -53.09375 L 22.171875 -53.09375 L 22.171875 -46.046875 C 23.816406 -48.390625 26.035156 -50.242188 28.828125 -51.609375 C 31.617188 -52.972656 34.757812 -53.65625 38.25 -53.65625 Z M 38.25 -53.65625 "/></g></g></g><g fill="#50a248" fill-opacity="1"><g transform="translate(0.644007, 172.188114)"><g><path d="M 3.03125 -19.34375 C 3.03125 -23.332031 3.828125 -26.816406 5.421875 -29.796875 C 7.015625 -32.773438 9.226562 -35.082031 12.0625 -36.71875 C 14.90625 -38.363281 18.15625 -39.1875 21.8125 -39.1875 C 26.550781 -39.1875 30.457031 -38.035156 33.53125 -35.734375 C 36.601562 -33.441406 38.628906 -30.253906 39.609375 -26.171875 L 32.71875 -26.171875 C 32.0625 -28.515625 30.78125 -30.363281 28.875 -31.71875 C 26.976562 -33.082031 24.625 -33.765625 21.8125 -33.765625 C 18.15625 -33.765625 15.195312 -32.507812 12.9375 -30 C 10.6875 -27.5 9.5625 -23.945312 9.5625 -19.34375 C 9.5625 -14.707031 10.6875 -11.117188 12.9375 -8.578125 C 15.195312 -6.046875 18.15625 -4.78125 21.8125 -4.78125 C 24.625 -4.78125 26.96875 -5.4375 28.84375 -6.75 C 30.71875 -8.0625 32.007812 -9.941406 32.71875 -12.390625 L 39.609375 -12.390625 C 38.578125 -8.441406 36.515625 -5.28125 33.421875 -2.90625 C 30.328125 -0.539062 26.457031 0.640625 21.8125 0.640625 C 18.15625 0.640625 14.90625 -0.179688 12.0625 -1.828125 C 9.226562 -3.472656 7.015625 -5.796875 5.421875 -8.796875 C 3.828125 -11.796875 3.03125 -15.3125 3.03125 -19.34375 Z M 3.03125 -19.34375 "/></g></g></g><g fill="#50a248" fill-opacity="1"><g transform="translate(43.345236, 172.188114)"><g><path d="M 22.234375 0.640625 C 18.617188 0.640625 15.34375 -0.179688 12.40625 -1.828125 C 9.476562 -3.472656 7.179688 -5.804688 5.515625 -8.828125 C 3.859375 -11.859375 3.03125 -15.363281 3.03125 -19.34375 C 3.03125 -23.289062 3.882812 -26.773438 5.59375 -29.796875 C 7.300781 -32.816406 9.632812 -35.132812 12.59375 -36.75 C 15.550781 -38.375 18.859375 -39.1875 22.515625 -39.1875 C 26.171875 -39.1875 29.476562 -38.375 32.4375 -36.75 C 35.394531 -35.132812 37.726562 -32.828125 39.4375 -29.828125 C 41.144531 -26.828125 42 -23.332031 42 -19.34375 C 42 -15.363281 41.117188 -11.859375 39.359375 -8.828125 C 37.609375 -5.804688 35.226562 -3.472656 32.21875 -1.828125 C 29.21875 -0.179688 25.890625 0.640625 22.234375 0.640625 Z M 22.234375 -5 C 24.535156 -5 26.691406 -5.535156 28.703125 -6.609375 C 30.722656 -7.691406 32.351562 -9.3125 33.59375 -11.46875 C 34.84375 -13.625 35.46875 -16.25 35.46875 -19.34375 C 35.46875 -22.445312 34.851562 -25.078125 33.625 -27.234375 C 32.40625 -29.390625 30.8125 -30.992188 28.84375 -32.046875 C 26.875 -33.097656 24.738281 -33.625 22.4375 -33.625 C 20.09375 -33.625 17.945312 -33.097656 16 -32.046875 C 14.0625 -30.992188 12.503906 -29.390625 11.328125 -27.234375 C 10.148438 -25.078125 9.5625 -22.445312 9.5625 -19.34375 C 9.5625 -16.207031 10.132812 -13.554688 11.28125 -11.390625 C 12.4375 -9.234375 13.972656 -7.628906 15.890625 -6.578125 C 17.816406 -5.523438 19.929688 -5 22.234375 -5 Z M 22.234375 -5 "/></g></g></g><g fill="#50a248" fill-opacity="1"><g transform="translate(88.367949, 172.188114)"><g><path d="M 24.203125 -39.265625 C 28.890625 -39.265625 32.6875 -37.84375 35.59375 -35 C 38.507812 -32.164062 39.96875 -28.070312 39.96875 -22.71875 L 39.96875 0 L 33.625 0 L 33.625 -21.8125 C 33.625 -25.65625 32.660156 -28.597656 30.734375 -30.640625 C 28.816406 -32.679688 26.191406 -33.703125 22.859375 -33.703125 C 19.484375 -33.703125 16.800781 -32.644531 14.8125 -30.53125 C 12.820312 -28.425781 11.828125 -25.351562 11.828125 -21.3125 L 11.828125 0 L 5.421875 0 L 5.421875 -38.5625 L 11.828125 -38.5625 L 11.828125 -33.0625 C 13.085938 -35.039062 14.804688 -36.566406 16.984375 -37.640625 C 19.171875 -38.722656 21.578125 -39.265625 24.203125 -39.265625 Z M 24.203125 -39.265625 "/></g></g></g><g fill="#50a248" fill-opacity="1"><g transform="translate(133.390662, 172.188114)"><g><path d="M 24.203125 -39.265625 C 28.890625 -39.265625 32.6875 -37.84375 35.59375 -35 C 38.507812 -32.164062 39.96875 -28.070312 39.96875 -22.71875 L 39.96875 0 L 33.625 0 L 33.625 -21.8125 C 33.625 -25.65625 32.660156 -28.597656 30.734375 -30.640625 C 28.816406 -32.679688 26.191406 -33.703125 22.859375 -33.703125 C 19.484375 -33.703125 16.800781 -32.644531 14.8125 -30.53125 C 12.820312 -28.425781 11.828125 -25.351562 11.828125 -21.3125 L 11.828125 0 L 5.421875 0 L 5.421875 -38.5625 L 11.828125 -38.5625 L 11.828125 -33.0625 C 13.085938 -35.039062 14.804688 -36.566406 16.984375 -37.640625 C 19.171875 -38.722656 21.578125 -39.265625 24.203125 -39.265625 Z M 24.203125 -39.265625 "/></g></g></g><g fill="#50a248" fill-opacity="1"><g transform="translate(178.413376, 172.188114)"><g><path d="M 40.59375 -20.75 C 40.59375 -19.53125 40.523438 -18.242188 40.390625 -16.890625 L 9.5625 -16.890625 C 9.800781 -13.085938 11.101562 -10.117188 13.46875 -7.984375 C 15.84375 -5.847656 18.71875 -4.78125 22.09375 -4.78125 C 24.863281 -4.78125 27.171875 -5.425781 29.015625 -6.71875 C 30.867188 -8.007812 32.171875 -9.734375 32.921875 -11.890625 L 39.828125 -11.890625 C 38.796875 -8.179688 36.726562 -5.164062 33.625 -2.84375 C 30.53125 -0.519531 26.6875 0.640625 22.09375 0.640625 C 18.4375 0.640625 15.164062 -0.179688 12.28125 -1.828125 C 9.394531 -3.472656 7.128906 -5.804688 5.484375 -8.828125 C 3.847656 -11.859375 3.03125 -15.363281 3.03125 -19.34375 C 3.03125 -23.332031 3.828125 -26.828125 5.421875 -29.828125 C 7.015625 -32.828125 9.253906 -35.132812 12.140625 -36.75 C 15.023438 -38.375 18.34375 -39.1875 22.09375 -39.1875 C 25.75 -39.1875 28.984375 -38.390625 31.796875 -36.796875 C 34.617188 -35.203125 36.789062 -33.007812 38.3125 -30.21875 C 39.832031 -27.425781 40.59375 -24.269531 40.59375 -20.75 Z M 33.984375 -22.09375 C 33.984375 -24.53125 33.441406 -26.628906 32.359375 -28.390625 C 31.285156 -30.148438 29.820312 -31.484375 27.96875 -32.390625 C 26.113281 -33.304688 24.0625 -33.765625 21.8125 -33.765625 C 18.570312 -33.765625 15.8125 -32.734375 13.53125 -30.671875 C 11.257812 -28.609375 9.960938 -25.75 9.640625 -22.09375 Z M 33.984375 -22.09375 "/></g></g></g><g fill="#50a248" fill-opacity="1"><g transform="translate(222.029137, 172.188114)"><g><path d="M 3.03125 -19.34375 C 3.03125 -23.332031 3.828125 -26.816406 5.421875 -29.796875 C 7.015625 -32.773438 9.226562 -35.082031 12.0625 -36.71875 C 14.90625 -38.363281 18.15625 -39.1875 21.8125 -39.1875 C 26.550781 -39.1875 30.457031 -38.035156 33.53125 -35.734375 C 36.601562 -33.441406 38.628906 -30.253906 39.609375 -26.171875 L 32.71875 -26.171875 C 32.0625 -28.515625 30.78125 -30.363281 28.875 -31.71875 C 26.976562 -33.082031 24.625 -33.765625 21.8125 -33.765625 C 18.15625 -33.765625 15.195312 -32.507812 12.9375 -30 C 10.6875 -27.5 9.5625 -23.945312 9.5625 -19.34375 C 9.5625 -14.707031 10.6875 -11.117188 12.9375 -8.578125 C 15.195312 -6.046875 18.15625 -4.78125 21.8125 -4.78125 C 24.625 -4.78125 26.96875 -5.4375 28.84375 -6.75 C 30.71875 -8.0625 32.007812 -9.941406 32.71875 -12.390625 L 39.609375 -12.390625 C 38.578125 -8.441406 36.515625 -5.28125 33.421875 -2.90625 C 30.328125 -0.539062 26.457031 0.640625 21.8125 0.640625 C 18.15625 0.640625 14.90625 -0.179688 12.0625 -1.828125 C 9.226562 -3.472656 7.015625 -5.796875 5.421875 -8.796875 C 3.828125 -11.796875 3.03125 -15.3125 3.03125 -19.34375 Z M 3.03125 -19.34375 "/></g></g></g><g fill="#50a248" fill-opacity="1"><g transform="translate(264.730344, 172.188114)"><g><path d="M 13.234375 -33.28125 L 13.234375 -10.546875 C 13.234375 -8.671875 13.628906 -7.347656 14.421875 -6.578125 C 15.222656 -5.804688 16.609375 -5.421875 18.578125 -5.421875 L 23.28125 -5.421875 L 23.28125 0 L 17.515625 0 C 13.953125 0 11.28125 -0.816406 9.5 -2.453125 C 7.71875 -4.097656 6.828125 -6.796875 6.828125 -10.546875 L 6.828125 -33.28125 L 1.828125 -33.28125 L 1.828125 -38.5625 L 6.828125 -38.5625 L 6.828125 -48.265625 L 13.234375 -48.265625 L 13.234375 -38.5625 L 23.28125 -38.5625 L 23.28125 -33.28125 Z M 13.234375 -33.28125 "/></g></g></g></g></g><g clip-path="url(#4e4704eb40)"><g clip-path="url(#70ea58d059)"><g transform="matrix(1, 0, 0, 1, 99, 56)"><g clip-path="url(#640f6fa1f1)"><g clip-path="url(#fd55d65a97)"><g clip-path="url(#c6dad704ed)"><path fill="#50a248" d="M 0.515625 0.246094 L 99.863281 0.246094 L 99.863281 49.921875 L 0.515625 49.921875 Z M 0.515625 0.246094 " fill-opacity="1" fill-rule="nonzero"/></g></g></g></g></g></g><g clip-path="url(#ce6866034b)"><g clip-path="url(#45100d99d7)"><g transform="matrix(1, 0, 0, 1, 176, 82)"><g clip-path="url(#1ef669b286)"><g clip-path="url(#3f9f2ec572)"><g clip-path="url(#96fe598c7b)"><path fill="#75485e" d="M 0.136719 0.953125 L 99.484375 0.953125 L 99.484375 50.625 L 0.136719 50.625 Z M 0.136719 0.953125 " fill-opacity="1" fill-rule="nonzero"/></g></g></g></g></g></g><g clip-path="url(#f39177b98a)"><g clip-path="url(#0b278b5846)"><g transform="matrix(1, 0, 0, 1, 176, 29)"><g clip-path="url(#3a967cc05d)"><g clip-path="url(#9928fb40dd)"><g clip-path="url(#a66487b0bd)"><path fill="#50a248" d="M 0.136719 0.542969 L 99.484375 0.542969 L 99.484375 50.21875 L 0.136719 50.21875 Z M 0.136719 0.542969 " fill-opacity="1" fill-rule="nonzero"/></g></g></g></g></g></g></svg>